{
	"asset":{
		"generator":"Khronos glTF Blender I/O v3.6.27",
		"version":"2.0"
	},
	"extensionsUsed":[
		"KHR_materials_specular",
		"KHR_materials_ior"
	],
	"scene":0,
	"scenes":[
		{
			"name":"Scene",
			"nodes":[
				0
			]
		}
	],
	"nodes":[
		{
			"mesh":0,
			"name":"Tree_lp_11",
			"rotation":[
				0,
				0.7071068286895752,
				0.7071068286895752,
				0
			],
			"scale":[
				-1,
				-0.9800818562507629,
				-0.6481356620788574
			]
		}
	],
	"materials":[
		{
			"doubleSided":true,
			"extensions":{
				"KHR_materials_specular":{
					"specularColorFactor":[
						0,
						0,
						0
					]
				},
				"KHR_materials_ior":{
					"ior":1.4500000476837158
				}
			},
			"name":"Bark",
			"pbrMetallicRoughness":{
				"baseColorFactor":[
					0.20759500563144684,
					0.1385129988193512,
					0.055181000381708145,
					1
				],
				"metallicFactor":0,
				"roughnessFactor":0.494035542011261
			}
		},
		{
			"doubleSided":true,
			"extensions":{
				"KHR_materials_specular":{
					"specularColorFactor":[
						0,
						0,
						0
					]
				},
				"KHR_materials_ior":{
					"ior":1.4500000476837158
				}
			},
			"name":"Tree",
			"pbrMetallicRoughness":{
				"baseColorFactor":[
					0.25686100125312805,
					0.4405060112476349,
					0.11076900362968445,
					1
				],
				"metallicFactor":0,
				"roughnessFactor":0.494035542011261
			}
		}
	],
	"meshes":[
		{
			"name":"Tree_lp_11",
			"primitives":[
				{
					"attributes":{
						"POSITION":0,
						"NORMAL":1,
						"TEXCOORD_0":2
					},
					"indices":3,
					"material":0
				},
				{
					"attributes":{
						"POSITION":4,
						"NORMAL":5,
						"TEXCOORD_0":6
					},
					"indices":7,
					"material":1
				}
			]
		}
	],
	"accessors":[
		{
			"bufferView":0,
			"componentType":5126,
			"count":764,
			"max":[
				9.259739875793457,
				5.698599815368652,
				0.7426329851150513
			],
			"min":[
				-8.95730972290039,
				-10.41759967803955,
				-17.54960060119629
			],
			"type":"VEC3"
		},
		{
			"bufferView":1,
			"componentType":5126,
			"count":764,
			"type":"VEC3"
		},
		{
			"bufferView":2,
			"componentType":5126,
			"count":764,
			"type":"VEC2"
		},
		{
			"bufferView":3,
			"componentType":5123,
			"count":1140,
			"type":"SCALAR"
		},
		{
			"bufferView":4,
			"componentType":5126,
			"count":360,
			"max":[
				13.91919994354248,
				7.3297200202941895,
				-8.734769821166992
			],
			"min":[
				-14.06190013885498,
				-13.472000122070312,
				-25.799100875854492
			],
			"type":"VEC3"
		},
		{
			"bufferView":5,
			"componentType":5126,
			"count":360,
			"type":"VEC3"
		},
		{
			"bufferView":6,
			"componentType":5126,
			"count":360,
			"type":"VEC2"
		},
		{
			"bufferView":7,
			"componentType":5123,
			"count":360,
			"type":"SCALAR"
		}
	],
	"bufferViews":[
		{
			"buffer":0,
			"byteLength":9168,
			"byteOffset":0,
			"target":34962
		},
		{
			"buffer":0,
			"byteLength":9168,
			"byteOffset":9168,
			"target":34962
		},
		{
			"buffer":0,
			"byteLength":6112,
			"byteOffset":18336,
			"target":34962
		},
		{
			"buffer":0,
			"byteLength":2280,
			"byteOffset":24448,
			"target":34963
		},
		{
			"buffer":0,
			"byteLength":4320,
			"byteOffset":26728,
			"target":34962
		},
		{
			"buffer":0,
			"byteLength":4320,
			"byteOffset":31048,
			"target":34962
		},
		{
			"buffer":0,
			"byteLength":2880,
			"byteOffset":35368,
			"target":34962
		},
		{
			"buffer":0,
			"byteLength":720,
			"byteOffset":38248,
			"target":34963
		}
	],
	"buffers":[
		{
			"byteLength":38968,
			"uri":"data:application/octet-stream;base64,"
		}
	]
}
