{
	"asset":{
		"generator":"Khronos glTF Blender I/O v4.1.63",
		"version":"2.0"
	},
	"scene":0,
	"scenes":[
		{
			"name":"Scene",
			"nodes":[
				0,
				1,
				2,
				3,
				4,
				5,
				6,
				7,
				8,
				9,
				10
			]
		}
	],
	"nodes":[
		{
			"mesh":0,
			"name":"Cube"
		},
		{
			"mesh":1,
			"name":"CUERPO.001",
			"translation":[
				-0.8509461879730225,
				1.1145892143249512,
				0.24088811874389648
			]
		},
		{
			"mesh":2,
			"name":"PIES.001",
			"rotation":[
				0,
				0.6956950426101685,
				0,
				0.7183372974395752
			],
			"scale":[
				0.6956687569618225,
				0.6956685185432434,
				0.6956687569618225
			],
			"translation":[
				0.11785244941711426,
				0.03392273187637329,
				0.31259727478027344
			]
		},
		{
			"mesh":3,
			"name":"CABEZA",
			"scale":[
				2.0471763610839844,
				2.0471763610839844,
				2.0471763610839844
			],
			"translation":[
				-1,
				3,
				0
			]
		},
		{
			"mesh":4,
			"name":"DIENTE",
			"rotation":[
				0.027073273435235023,
				0.016379140317440033,
				-0.06322336196899414,
				0.9974976778030396
			],
			"scale":[
				0.21861490607261658,
				0.218614861369133,
				0.2186148762702942
			],
			"translation":[
				0.47292226552963257,
				2.2810475826263428,
				-1.429403305053711
			]
		},
		{
			"mesh":5,
			"name":"CEJAS",
			"scale":[
				2.0471763610839844,
				2.0471763610839844,
				2.2525644302368164
			],
			"translation":[
				-1,
				3,
				0
			]
		},
		{
			"mesh":6,
			"name":"pupila",
			"rotation":[
				0.05129912495613098,
				0.06212732568383217,
				0.3006207048892975,
				0.9503345489501953
			],
			"scale":[
				1.4601880311965942,
				6.204659938812256,
				4.367159366607666
			],
			"translation":[
				0.3694683015346527,
				1.673014760017395,
				0.4604441225528717
			]
		},
		{
			"mesh":7,
			"name":"brillo ojo",
			"rotation":[
				0.022968634963035583,
				0.08765743672847748,
				-0.38951465487480164,
				0.9165517687797546
			],
			"scale":[
				-0.06306218355894089,
				-0.06306217610836029,
				-0.06306218355894089
			],
			"translation":[
				0.10305014252662659,
				3.5763344764709473,
				-0.556283712387085
			]
		},
		{
			"mesh":8,
			"name":"DIENTE.001",
			"rotation":[
				0.027073273435235023,
				0.016379140317440033,
				-0.06322336196899414,
				0.9974976778030396
			],
			"scale":[
				0.21861490607261658,
				0.218614861369133,
				0.2186148762702942
			],
			"translation":[
				0.47120821475982666,
				2.4717302322387695,
				1.4594693183898926
			]
		},
		{
			"mesh":9,
			"name":"pupila.001",
			"rotation":[
				-0.14783088862895966,
				-0.006000680383294821,
				0.2643599510192871,
				0.9530078172683716
			],
			"scale":[
				1.4601882696151733,
				6.204659461975098,
				4.367159843444824
			],
			"translation":[
				-0.020052427425980568,
				2.1486423015594482,
				2.1398825645446777
			]
		},
		{
			"mesh":10,
			"name":"brillo ojo.001",
			"rotation":[
				-0.08423309773206711,
				-0.0942692905664444,
				-0.4169948995113373,
				0.9000740647315979
			],
			"scale":[
				-0.06306217610836029,
				-0.06306217610836029,
				-0.06306217610836029
			],
			"translation":[
				0.13523738086223602,
				3.5936546325683594,
				0.5227355360984802
			]
		}
	],
	"materials":[
		{
			"doubleSided":true,
			"name":"Material",
			"pbrMetallicRoughness":{
				"baseColorFactor":[
					0.800000011920929,
					0.800000011920929,
					0.800000011920929,
					1
				],
				"metallicFactor":0,
				"roughnessFactor":0.5
			}
		},
		{
			"doubleSided":true,
			"name":"TORSO",
			"pbrMetallicRoughness":{
				"baseColorFactor":[
					0.18782074749469757,
					0.13286831974983215,
					0.07036010175943375,
					1
				],
				"metallicFactor":0,
				"roughnessFactor":0.5
			}
		},
		{
			"doubleSided":true,
			"name":"pies",
			"pbrMetallicRoughness":{
				"baseColorFactor":[
					0.09758735448122025,
					0.04817182198166847,
					0.03189603611826897,
					1
				],
				"metallicFactor":0,
				"roughnessFactor":0.4000000059604645
			}
		},
		{
			"doubleSided":true,
			"name":"CABEZA",
			"pbrMetallicRoughness":{
				"baseColorFactor":[
					0.15592645108699799,
					0.05126946046948433,
					0.021219007670879364,
					1
				],
				"metallicFactor":0,
				"roughnessFactor":0.5
			}
		},
		{
			"doubleSided":true,
			"name":"OJO BCO",
			"pbrMetallicRoughness":{
				"baseColorFactor":[
					0.9335121512413025,
					0.9702330231666565,
					1,
					1
				],
				"metallicFactor":0,
				"roughnessFactor":0.5
			}
		},
		{
			"doubleSided":true,
			"name":"CEJAS",
			"pbrMetallicRoughness":{
				"baseColorFactor":[
					0,
					0,
					0,
					1
				],
				"metallicFactor":0,
				"roughnessFactor":0.5
			}
		}
	],
	"meshes":[
		{
			"name":"Cube",
			"primitives":[
				{
					"attributes":{
						"POSITION":0,
						"NORMAL":1,
						"TEXCOORD_0":2
					},
					"indices":3,
					"material":0
				}
			]
		},
		{
			"name":"Cube.003",
			"primitives":[
				{
					"attributes":{
						"POSITION":4,
						"NORMAL":5,
						"TEXCOORD_0":6
					},
					"indices":7,
					"material":1
				}
			]
		},
		{
			"name":"Cube.005",
			"primitives":[
				{
					"attributes":{
						"POSITION":8,
						"NORMAL":9,
						"TEXCOORD_0":10
					},
					"indices":11,
					"material":2
				}
			]
		},
		{
			"name":"Cube.006",
			"primitives":[
				{
					"attributes":{
						"POSITION":12,
						"NORMAL":13,
						"TEXCOORD_0":14
					},
					"indices":15,
					"material":3
				},
				{
					"attributes":{
						"POSITION":16,
						"NORMAL":17,
						"TEXCOORD_0":18
					},
					"indices":19,
					"material":4
				}
			]
		},
		{
			"name":"Cube.007",
			"primitives":[
				{
					"attributes":{
						"POSITION":20,
						"NORMAL":21,
						"TEXCOORD_0":22
					},
					"indices":23,
					"material":4
				}
			]
		},
		{
			"name":"Cube.011",
			"primitives":[
				{
					"attributes":{
						"POSITION":24,
						"NORMAL":25,
						"TEXCOORD_0":26
					},
					"indices":27,
					"material":5
				}
			]
		},
		{
			"name":"Cube.010",
			"primitives":[
				{
					"attributes":{
						"POSITION":28,
						"NORMAL":29,
						"TEXCOORD_0":30
					},
					"indices":31,
					"material":5
				}
			]
		},
		{
			"name":"Plane.001",
			"primitives":[
				{
					"attributes":{
						"POSITION":32,
						"NORMAL":33,
						"TEXCOORD_0":34
					},
					"indices":35,
					"material":4
				}
			]
		},
		{
			"name":"Cube.013",
			"primitives":[
				{
					"attributes":{
						"POSITION":36,
						"NORMAL":37,
						"TEXCOORD_0":38
					},
					"indices":23,
					"material":4
				}
			]
		},
		{
			"name":"Cube.014",
			"primitives":[
				{
					"attributes":{
						"POSITION":39,
						"NORMAL":40,
						"TEXCOORD_0":41
					},
					"indices":31,
					"material":5
				}
			]
		},
		{
			"name":"Plane.002",
			"primitives":[
				{
					"attributes":{
						"POSITION":42,
						"NORMAL":43,
						"TEXCOORD_0":44
					},
					"indices":35,
					"material":4
				}
			]
		}
	],
	"accessors":[
		{
			"bufferView":0,
			"componentType":5126,
			"count":24,
			"max":[
				1,
				1,
				1
			],
			"min":[
				-1,
				-1,
				-1
			],
			"type":"VEC3"
		},
		{
			"bufferView":1,
			"componentType":5126,
			"count":24,
			"type":"VEC3"
		},
		{
			"bufferView":2,
			"componentType":5126,
			"count":24,
			"type":"VEC2"
		},
		{
			"bufferView":3,
			"componentType":5123,
			"count":36,
			"type":"SCALAR"
		},
		{
			"bufferView":4,
			"componentType":5126,
			"count":452,
			"max":[
				0.7100906372070312,
				0.8395062685012817,
				0.9753949046134949
			],
			"min":[
				-0.7100904583930969,
				-0.8395062685012817,
				-0.9753949046134949
			],
			"type":"VEC3"
		},
		{
			"bufferView":5,
			"componentType":5126,
			"count":452,
			"type":"VEC3"
		},
		{
			"bufferView":6,
			"componentType":5126,
			"count":452,
			"type":"VEC2"
		},
		{
			"bufferView":7,
			"componentType":5123,
			"count":2304,
			"type":"SCALAR"
		},
		{
			"bufferView":8,
			"componentType":5126,
			"count":1510,
			"max":[
				2.5270884037017822,
				0.9230260848999023,
				-0.2751099467277527
			],
			"min":[
				-2.5270884037017822,
				-0.29642024636268616,
				-2.4413437843322754
			],
			"type":"VEC3"
		},
		{
			"bufferView":9,
			"componentType":5126,
			"count":1510,
			"type":"VEC3"
		},
		{
			"bufferView":10,
			"componentType":5126,
			"count":1510,
			"type":"VEC2"
		},
		{
			"bufferView":11,
			"componentType":5123,
			"count":7680,
			"type":"SCALAR"
		},
		{
			"bufferView":12,
			"componentType":5126,
			"count":72384,
			"max":[
				1.0422086715698242,
				0.8717504739761353,
				1.2123990058898926
			],
			"min":[
				-1.2137831449508667,
				-0.8838590979576111,
				-1.2123990058898926
			],
			"type":"VEC3"
		},
		{
			"bufferView":13,
			"componentType":5126,
			"count":72384,
			"type":"VEC3"
		},
		{
			"bufferView":14,
			"componentType":5126,
			"count":72384,
			"type":"VEC2"
		},
		{
			"bufferView":15,
			"componentType":5125,
			"count":415296,
			"type":"SCALAR"
		},
		{
			"bufferView":16,
			"componentType":5126,
			"count":7316,
			"max":[
				0.7976817488670349,
				0.45554104447364807,
				0.5752303600311279
			],
			"min":[
				0.38521870970726013,
				-0.11204828321933746,
				-0.5752303600311279
			],
			"type":"VEC3"
		},
		{
			"bufferView":17,
			"componentType":5126,
			"count":7316,
			"type":"VEC3"
		},
		{
			"bufferView":18,
			"componentType":5126,
			"count":7316,
			"type":"VEC2"
		},
		{
			"bufferView":19,
			"componentType":5123,
			"count":38592,
			"type":"SCALAR"
		},
		{
			"bufferView":20,
			"componentType":5126,
			"count":1041,
			"max":[
				0.9166667461395264,
				2.2954816818237305,
				0.9166667461395264
			],
			"min":[
				-0.9166667461395264,
				-1.0000003576278687,
				-0.9166667461395264
			],
			"type":"VEC3"
		},
		{
			"bufferView":21,
			"componentType":5126,
			"count":1041,
			"type":"VEC3"
		},
		{
			"bufferView":22,
			"componentType":5126,
			"count":1041,
			"type":"VEC2"
		},
		{
			"bufferView":23,
			"componentType":5123,
			"count":2304,
			"type":"SCALAR"
		},
		{
			"bufferView":24,
			"componentType":5126,
			"count":1958,
			"max":[
				0.5406116843223572,
				0.8179563879966736,
				0.797109067440033
			],
			"min":[
				0.25688716769218445,
				0.3761189877986908,
				-0.797109067440033
			],
			"type":"VEC3"
		},
		{
			"bufferView":25,
			"componentType":5126,
			"count":1958,
			"type":"VEC3"
		},
		{
			"bufferView":26,
			"componentType":5126,
			"count":1958,
			"type":"VEC2"
		},
		{
			"bufferView":27,
			"componentType":5123,
			"count":10752,
			"type":"SCALAR"
		},
		{
			"bufferView":28,
			"componentType":5126,
			"count":713,
			"max":[
				0.6849119663238525,
				0.2917606830596924,
				-0.22441819310188293
			],
			"min":[
				0.5617865324020386,
				0.1595190316438675,
				-0.30901584029197693
			],
			"type":"VEC3"
		},
		{
			"bufferView":29,
			"componentType":5126,
			"count":713,
			"type":"VEC3"
		},
		{
			"bufferView":30,
			"componentType":5126,
			"count":713,
			"type":"VEC2"
		},
		{
			"bufferView":31,
			"componentType":5123,
			"count":3840,
			"type":"SCALAR"
		},
		{
			"bufferView":32,
			"componentType":5126,
			"count":290,
			"max":[
				0.8477463126182556,
				0.023330144584178925,
				0.7720541954040527
			],
			"min":[
				-0.8429227471351624,
				-0.16568858921527863,
				-0.7455635666847229
			],
			"type":"VEC3"
		},
		{
			"bufferView":33,
			"componentType":5126,
			"count":290,
			"type":"VEC3"
		},
		{
			"bufferView":34,
			"componentType":5126,
			"count":290,
			"type":"VEC2"
		},
		{
			"bufferView":35,
			"componentType":5123,
			"count":960,
			"type":"SCALAR"
		},
		{
			"bufferView":36,
			"componentType":5126,
			"count":1041,
			"max":[
				0.9166667461395264,
				2.2954816818237305,
				0.9166667461395264
			],
			"min":[
				-0.9166667461395264,
				-1.0000003576278687,
				-0.9166667461395264
			],
			"type":"VEC3"
		},
		{
			"bufferView":37,
			"componentType":5126,
			"count":1041,
			"type":"VEC3"
		},
		{
			"bufferView":38,
			"componentType":5126,
			"count":1041,
			"type":"VEC2"
		},
		{
			"bufferView":39,
			"componentType":5126,
			"count":713,
			"max":[
				0.6849119663238525,
				0.2917606830596924,
				-0.22441819310188293
			],
			"min":[
				0.5617865324020386,
				0.1595190316438675,
				-0.30901584029197693
			],
			"type":"VEC3"
		},
		{
			"bufferView":40,
			"componentType":5126,
			"count":713,
			"type":"VEC3"
		},
		{
			"bufferView":41,
			"componentType":5126,
			"count":713,
			"type":"VEC2"
		},
		{
			"bufferView":42,
			"componentType":5126,
			"count":290,
			"max":[
				0.8477463126182556,
				0.023330144584178925,
				0.7720541954040527
			],
			"min":[
				-0.8429227471351624,
				-0.16568858921527863,
				-0.7455635666847229
			],
			"type":"VEC3"
		},
		{
			"bufferView":43,
			"componentType":5126,
			"count":290,
			"type":"VEC3"
		},
		{
			"bufferView":44,
			"componentType":5126,
			"count":290,
			"type":"VEC2"
		}
	],
	"bufferViews":[
		{
			"buffer":0,
			"byteLength":288,
			"byteOffset":0,
			"target":34962
		},
		{
			"buffer":0,
			"byteLength":288,
			"byteOffset":288,
			"target":34962
		},
		{
			"buffer":0,
			"byteLength":192,
			"byteOffset":576,
			"target":34962
		},
		{
			"buffer":0,
			"byteLength":72,
			"byteOffset":768,
			"target":34963
		},
		{
			"buffer":0,
			"byteLength":5424,
			"byteOffset":840,
			"target":34962
		},
		{
			"buffer":0,
			"byteLength":5424,
			"byteOffset":6264,
			"target":34962
		},
		{
			"buffer":0,
			"byteLength":3616,
			"byteOffset":11688,
			"target":34962
		},
		{
			"buffer":0,
			"byteLength":4608,
			"byteOffset":15304,
			"target":34963
		},
		{
			"buffer":0,
			"byteLength":18120,
			"byteOffset":19912,
			"target":34962
		},
		{
			"buffer":0,
			"byteLength":18120,
			"byteOffset":38032,
			"target":34962
		},
		{
			"buffer":0,
			"byteLength":12080,
			"byteOffset":56152,
			"target":34962
		},
		{
			"buffer":0,
			"byteLength":15360,
			"byteOffset":68232,
			"target":34963
		},
		{
			"buffer":0,
			"byteLength":868608,
			"byteOffset":83592,
			"target":34962
		},
		{
			"buffer":0,
			"byteLength":868608,
			"byteOffset":952200,
			"target":34962
		},
		{
			"buffer":0,
			"byteLength":579072,
			"byteOffset":1820808,
			"target":34962
		},
		{
			"buffer":0,
			"byteLength":1661184,
			"byteOffset":2399880,
			"target":34963
		},
		{
			"buffer":0,
			"byteLength":87792,
			"byteOffset":4061064,
			"target":34962
		},
		{
			"buffer":0,
			"byteLength":87792,
			"byteOffset":4148856,
			"target":34962
		},
		{
			"buffer":0,
			"byteLength":58528,
			"byteOffset":4236648,
			"target":34962
		},
		{
			"buffer":0,
			"byteLength":77184,
			"byteOffset":4295176,
			"target":34963
		},
		{
			"buffer":0,
			"byteLength":12492,
			"byteOffset":4372360,
			"target":34962
		},
		{
			"buffer":0,
			"byteLength":12492,
			"byteOffset":4384852,
			"target":34962
		},
		{
			"buffer":0,
			"byteLength":8328,
			"byteOffset":4397344,
			"target":34962
		},
		{
			"buffer":0,
			"byteLength":4608,
			"byteOffset":4405672,
			"target":34963
		},
		{
			"buffer":0,
			"byteLength":23496,
			"byteOffset":4410280,
			"target":34962
		},
		{
			"buffer":0,
			"byteLength":23496,
			"byteOffset":4433776,
			"target":34962
		},
		{
			"buffer":0,
			"byteLength":15664,
			"byteOffset":4457272,
			"target":34962
		},
		{
			"buffer":0,
			"byteLength":21504,
			"byteOffset":4472936,
			"target":34963
		},
		{
			"buffer":0,
			"byteLength":8556,
			"byteOffset":4494440,
			"target":34962
		},
		{
			"buffer":0,
			"byteLength":8556,
			"byteOffset":4502996,
			"target":34962
		},
		{
			"buffer":0,
			"byteLength":5704,
			"byteOffset":4511552,
			"target":34962
		},
		{
			"buffer":0,
			"byteLength":7680,
			"byteOffset":4517256,
			"target":34963
		},
		{
			"buffer":0,
			"byteLength":3480,
			"byteOffset":4524936,
			"target":34962
		},
		{
			"buffer":0,
			"byteLength":3480,
			"byteOffset":4528416,
			"target":34962
		},
		{
			"buffer":0,
			"byteLength":2320,
			"byteOffset":4531896,
			"target":34962
		},
		{
			"buffer":0,
			"byteLength":1920,
			"byteOffset":4534216,
			"target":34963
		},
		{
			"buffer":0,
			"byteLength":12492,
			"byteOffset":4536136,
			"target":34962
		},
		{
			"buffer":0,
			"byteLength":12492,
			"byteOffset":4548628,
			"target":34962
		},
		{
			"buffer":0,
			"byteLength":8328,
			"byteOffset":4561120,
			"target":34962
		},
		{
			"buffer":0,
			"byteLength":8556,
			"byteOffset":4569448,
			"target":34962
		},
		{
			"buffer":0,
			"byteLength":8556,
			"byteOffset":4578004,
			"target":34962
		},
		{
			"buffer":0,
			"byteLength":5704,
			"byteOffset":4586560,
			"target":34962
		},
		{
			"buffer":0,
			"byteLength":3480,
			"byteOffset":4592264,
			"target":34962
		},
		{
			"buffer":0,
			"byteLength":3480,
			"byteOffset":4595744,
			"target":34962
		},
		{
			"buffer":0,
			"byteLength":2320,
			"byteOffset":4599224,
			"target":34962
		}
	],
	"buffers":[
		{
			"byteLength":4601544,
			"uri":"untitled.bin"
		}
	]
}
